<?xml version="1.0" standalone="no"?>
<!DOCTYPE svg PUBLIC "-//W3C//DTD SVG 20010904//EN"
 "http://www.w3.org/TR/2001/REC-SVG-20010904/DTD/svg10.dtd">
<svg version="1.0" xmlns="http://www.w3.org/2000/svg"
 width="700.000000pt" height="700.000000pt" viewBox="0 0 700.000000 700.000000"
 preserveAspectRatio="xMidYMid meet">
<metadata>
Created by potrace 1.14, written by Peter Selinger 2001-2017
</metadata>
<g transform="translate(0.000000,700.000000) scale(0.100000,-0.100000)"
fill="#000000" stroke="none">
<path d="M833 6339 c-70 -16 -120 -55 -154 -120 l-22 -44 -1 -1035 c0 -1032 0
-1035 21 -1075 27 -51 68 -90 118 -111 37 -15 126 -17 1065 -17 1121 0 1056
-3 1129 59 19 15 43 49 54 74 20 44 20 65 20 1070 0 938 -2 1028 -17 1065 -21
50 -60 91 -111 118 -40 20 -49 20 -1057 21 -559 1 -1030 -2 -1045 -5z"/>
<path d="M4113 6339 c-69 -14 -130 -66 -159 -134 -15 -37 -17 -127 -17 -1065
0 -937 2 -1028 17 -1065 23 -54 62 -93 116 -118 44 -20 62 -20 1070 -20 940 0
1028 2 1065 17 50 21 91 60 118 111 20 40 21 46 21 1070 l1 1030 -22 45 c-35
73 -79 111 -143 125 -40 9 -2024 13 -2067 4z"/>
<path d="M848 3059 c-78 -12 -135 -54 -174 -129 -17 -33 -18 -92 -18 -1070 1
-1029 1 -1035 21 -1075 28 -53 55 -80 106 -107 l42 -22 1035 0 1035 1 42 21
c54 28 81 56 106 112 19 43 20 63 20 1070 0 1002 0 1026 -20 1070 -23 53 -77
103 -128 120 -29 9 -276 13 -1030 14 -545 0 -1012 -2 -1037 -5z"/>
<path d="M4135 3059 c-87 -11 -148 -56 -181 -134 -15 -37 -17 -126 -17 -1070
0 -962 1 -1033 18 -1065 24 -49 63 -88 110 -113 40 -21 44 -21 1060 -21 1131
0 1085 -3 1152 64 71 72 68 19 67 1151 0 994 -1 1015 -21 1059 -23 54 -77 103
-129 120 -29 10 -267 13 -1023 14 -542 0 -1009 -2 -1036 -5z"/>
</g>
</svg>
